<mxfile host="Electron" modified="2024-02-04T14:38:07.687Z" agent="Mozilla/5.0 (Windows NT 10.0; Win64; x64) AppleWebKit/537.36 (KHTML, like Gecko) draw.io/23.0.2 Chrome/120.0.6099.109 Electron/28.1.0 Safari/537.36" etag="UAoG7pqeiL-hxXjt2hQs" version="23.0.2" type="device">
  <diagram name="Page-1" id="Yib4v7EdLo7ts7t_Yky-">
    <mxGraphModel dx="1621" dy="511" grid="1" gridSize="10" guides="1" tooltips="1" connect="1" arrows="1" fold="1" page="1" pageScale="1" pageWidth="827" pageHeight="1169" math="0" shadow="0">
      <root>
        <mxCell id="0" />
        <mxCell id="1" parent="0" />
        <UserObject label="Parent" type="externalEntity" source="" flow="" placeholders="1" id="5sIsnw96NS5F1Q2ba414-1">
          <mxCell style="shape=rectangle;whiteSpace=wrap;html=1;fillColor=#ffffff;strokeColor=#000000;align=center;verticalAlign=middle;fontColor=#232F3E;" vertex="1" parent="1">
            <mxGeometry x="162.5" width="65" height="35" as="geometry" />
          </mxCell>
        </UserObject>
        <UserObject label="Message to Counselor" type="process" source="1" flow="Parent Concerns, Parent Reassurance" placeholders="1" id="5sIsnw96NS5F1Q2ba414-2">
          <mxCell style="shape=ellipse;perimeter=ellipsePerimeter;whiteSpace=wrap;html=1;fillColor=#ffffff;strokeColor=#000000;align=center;verticalAlign=middle;fontColor=#232F3E;" vertex="1" parent="1">
            <mxGeometry x="20" y="135" width="145" height="35" as="geometry" />
          </mxCell>
        </UserObject>
        <UserObject label="Child&#39;s Photos" type="dataStore" source="2" flow="Shared Photos" placeholders="1" id="5sIsnw96NS5F1Q2ba414-3">
          <mxCell style="html=1;dashed=0;whiteSpace=wrap;shape=partialRectangle;right=0;left=0;" vertex="1" parent="1">
            <mxGeometry y="270" width="105" height="35" as="geometry" />
          </mxCell>
        </UserObject>
        <UserObject label="Bi-Weekly Feedback" type="process" source="3" flow="Child&#39;s Behavior, Child&#39;s Performance" placeholders="1" id="5sIsnw96NS5F1Q2ba414-4">
          <mxCell style="shape=ellipse;perimeter=ellipsePerimeter;whiteSpace=wrap;html=1;fillColor=#ffffff;strokeColor=#000000;align=center;verticalAlign=middle;fontColor=#232F3E;" vertex="1" parent="1">
            <mxGeometry x="46.42578125" y="405" width="135" height="35" as="geometry" />
          </mxCell>
        </UserObject>
        <UserObject label="Notification System" type="process" source="1,4" flow="Upcoming Events, Changes, Important Notices" placeholders="1" id="5sIsnw96NS5F1Q2ba414-5">
          <mxCell style="shape=ellipse;perimeter=ellipsePerimeter;whiteSpace=wrap;html=1;fillColor=#ffffff;strokeColor=#000000;align=center;verticalAlign=middle;fontColor=#232F3E;" vertex="1" parent="1">
            <mxGeometry x="107.8515625" y="540" width="135" height="35" as="geometry" />
          </mxCell>
        </UserObject>
        <UserObject label="Feedback Collection" type="process" source="1" flow="Parent Feedback, General Concerns" placeholders="1" id="5sIsnw96NS5F1Q2ba414-6">
          <mxCell style="shape=ellipse;perimeter=ellipsePerimeter;whiteSpace=wrap;html=1;fillColor=#ffffff;strokeColor=#000000;align=center;verticalAlign=middle;fontColor=#232F3E;" vertex="1" parent="1">
            <mxGeometry x="225" y="135" width="135" height="35" as="geometry" />
          </mxCell>
        </UserObject>
        <UserObject label="Improvement and Issue Resolution" type="process" source="6" flow="Improved Services, Addressed Issues" placeholders="1" id="5sIsnw96NS5F1Q2ba414-7">
          <mxCell style="shape=ellipse;perimeter=ellipsePerimeter;whiteSpace=wrap;html=1;fillColor=#ffffff;strokeColor=#000000;align=center;verticalAlign=middle;fontColor=#232F3E;" vertex="1" parent="1">
            <mxGeometry x="185" y="270" width="215" height="35" as="geometry" />
          </mxCell>
        </UserObject>
        <mxCell id="5sIsnw96NS5F1Q2ba414-8" value="Parent Concerns, Parent Reassurance" style="endArrow=blockThin;endFill=1;fontSize=11;orthogonal=1;noEdgeStyle=1;" edge="1" parent="1" source="5sIsnw96NS5F1Q2ba414-1" target="5sIsnw96NS5F1Q2ba414-2">
          <mxGeometry relative="1" as="geometry">
            <Array as="points">
              <mxPoint x="176.66666666666666" y="47" />
              <mxPoint x="92.5" y="123" />
            </Array>
          </mxGeometry>
        </mxCell>
        <mxCell id="5sIsnw96NS5F1Q2ba414-9" value="Shared Photos" style="endArrow=blockThin;endFill=1;fontSize=11;orthogonal=1;noEdgeStyle=1;" edge="1" parent="1" source="5sIsnw96NS5F1Q2ba414-2" target="5sIsnw96NS5F1Q2ba414-3">
          <mxGeometry relative="1" as="geometry">
            <Array as="points">
              <mxPoint x="92.5" y="182" />
              <mxPoint x="52.5" y="258" />
            </Array>
          </mxGeometry>
        </mxCell>
        <mxCell id="5sIsnw96NS5F1Q2ba414-10" value="Child&#39;s Behavior, Child&#39;s Performance" style="endArrow=blockThin;endFill=1;fontSize=11;orthogonal=1;noEdgeStyle=1;" edge="1" parent="1" source="5sIsnw96NS5F1Q2ba414-3" target="5sIsnw96NS5F1Q2ba414-4">
          <mxGeometry relative="1" as="geometry">
            <Array as="points">
              <mxPoint x="52.5" y="317" />
              <mxPoint x="113.92578125" y="393" />
            </Array>
          </mxGeometry>
        </mxCell>
        <mxCell id="5sIsnw96NS5F1Q2ba414-11" value="Upcoming Events, Changes, Important Notices" style="endArrow=blockThin;endFill=1;fontSize=11;orthogonal=1;noEdgeStyle=1;" edge="1" parent="1" source="5sIsnw96NS5F1Q2ba414-1" target="5sIsnw96NS5F1Q2ba414-5">
          <mxGeometry relative="1" as="geometry">
            <Array as="points">
              <mxPoint x="195" y="49" />
              <mxPoint x="195" y="85" />
              <mxPoint x="195" y="220" />
              <mxPoint x="135" y="220" />
              <mxPoint x="135" y="355" />
              <mxPoint x="235.625" y="355" />
              <mxPoint x="235.625" y="490" />
              <mxPoint x="206.6015625" y="528" />
            </Array>
          </mxGeometry>
        </mxCell>
        <mxCell id="5sIsnw96NS5F1Q2ba414-12" value="Upcoming Events, Changes, Important Notices" style="endArrow=blockThin;endFill=1;fontSize=11;orthogonal=1;noEdgeStyle=1;" edge="1" parent="1" source="5sIsnw96NS5F1Q2ba414-4" target="5sIsnw96NS5F1Q2ba414-5">
          <mxGeometry relative="1" as="geometry">
            <Array as="points">
              <mxPoint x="113.92578125" y="452" />
              <mxPoint x="144.1015625" y="528" />
            </Array>
          </mxGeometry>
        </mxCell>
        <mxCell id="5sIsnw96NS5F1Q2ba414-13" value="Parent Feedback, General Concerns" style="endArrow=blockThin;endFill=1;fontSize=11;orthogonal=1;noEdgeStyle=1;" edge="1" parent="1" source="5sIsnw96NS5F1Q2ba414-1" target="5sIsnw96NS5F1Q2ba414-6">
          <mxGeometry relative="1" as="geometry">
            <Array as="points">
              <mxPoint x="213.33333333333334" y="47" />
              <mxPoint x="292.5" y="123" />
            </Array>
          </mxGeometry>
        </mxCell>
        <mxCell id="5sIsnw96NS5F1Q2ba414-14" value="Improved Services, Addressed Issues" style="endArrow=blockThin;endFill=1;fontSize=11;orthogonal=1;noEdgeStyle=1;" edge="1" parent="1" source="5sIsnw96NS5F1Q2ba414-6" target="5sIsnw96NS5F1Q2ba414-7">
          <mxGeometry relative="1" as="geometry">
            <Array as="points">
              <mxPoint x="292.5" y="182" />
              <mxPoint x="292.5" y="258" />
            </Array>
          </mxGeometry>
        </mxCell>
      </root>
    </mxGraphModel>
  </diagram>
</mxfile>
